<svg xmlns="http://www.w3.org/2000/svg" viewBox="0 0 100 100">
    
<line x1="50" y1="100" x2="50" y2="70" style="stroke:#FF8000;stroke-width:20" />
<line x1="50" y1="70" x2="25" y2="40" style="stroke:#FF8000;stroke-width:10" />
<line x1="25" y1="40" x2="10" y2="35" style="stroke:#FF8000;stroke-width:8" />
<line x1="25" y1="40" x2="25" y2="20" style="stroke:#FF8000;stroke-width:7" />
<line x1="50" y1="70" x2="75" y2="50" style="stroke:#FF8000;stroke-width:15" />

<!-- New branches -->
<line x1="75" y1="50" x2="85" y2="35" style="stroke:#FF8000;stroke-width:12" />
<line x1="75" y1="50" x2="65" y2="35" style="stroke:#FF8000;stroke-width:12" />
<line x1="10" y1="35" x2="0" y2="20" style="stroke:#FF8000;stroke-width:8" />
<line x1="25" y1="20" x2="35" y2="5" style="stroke:#FF8000;stroke-width:7" />

<!-- Additional 20 branches -->
<!-- I've varied the stroke-widths and colors slightly to give the coral some depth -->
<!-- Also, I've tried to ensure that the branches don't form very long chains -->
<line x1="50" y1="70" x2="60" y2="60" style="stroke:#FF8000;stroke-width:10" />
<line x1="60" y1="60" x2="70" y2="70" style="stroke:#FF8000;stroke-width:9" />
<line x1="70" y1="70" x2="80" y2="60" style="stroke:#FF8000;stroke-width:8" />
<line x1="80" y1="60" x2="90" y2="70" style="stroke:#FF8000;stroke-width:7" />
<line x1="90" y1="70" x2="100" y2="60" style="stroke:#FF8000;stroke-width:6" />
<line x1="100" y1="60" x2="90" y2="50" style="stroke:#FF8000;stroke-width:5" />
<line x1="90" y1="50" x2="80" y2="40" style="stroke:#FF8000;stroke-width:4" />
<line x1="80" y1="40" x2="70" y2="30" style="stroke:#FF8000;stroke-width:3" />
<line x1="70" y1="30" x2="60" y2="20" style="stroke:#FF8000;stroke-width:2" />
<line x1="60" y1="20" x2="50" y2="10" style="stroke:#FF8000;stroke-width:1" />
<line x1="50" y1="10" x2="40" y2="20" style="stroke:#FF8000;stroke-width:2" />
<line x1="40" y1="20" x2="30" y2="30" style="stroke:#FF8000;stroke-width:3" />
<line x1="30" y1="30" x2="20" y2="40" style="stroke:#FF8000;stroke-width:4" />
<line x1="20" y1="40" x2="10" y2="50" style="stroke:#FF8000;stroke-width:5" />
<line x1="10" y1="50" x2="0" y2="60" style="stroke:#FF8000;stroke-width:6" />
<line x1="0" y1="60" x2="10" y2="70" style="stroke:#FF8000;stroke-width:7" />
<line x1="10" y1="70" x2="20" y2="80" style="stroke:#FF8000;stroke-width:8" />
<line x1="20" y1="80" x2="30" y2="90" style="stroke:#FF8000;stroke-width:9" />
<line x1="30" y1="90" x2="40" y2="100" style="stroke:#FF8000;stroke-width:10" />

</svg>